<?xml version="1.0" encoding="UTF-8"?>
<svg xmlns="http://www.w3.org/2000/svg" version="1.1" width="300" height="300" viewBox="0 0 300 300"><rect x="0" y="0" width="300" height="300" fill="#ffffff"/><g transform="scale(10.345)"><g transform="translate(0,0)"><path fill-rule="evenodd" d="M9 0L9 1L8 1L8 2L9 2L9 3L8 3L8 4L9 4L9 5L8 5L8 7L9 7L9 8L6 8L6 9L8 9L8 10L5 10L5 8L0 8L0 9L3 9L3 10L1 10L1 11L0 11L0 12L1 12L1 13L2 13L2 14L4 14L4 15L2 15L2 16L0 16L0 21L1 21L1 18L2 18L2 21L8 21L8 23L9 23L9 24L8 24L8 29L11 29L11 28L12 28L12 29L19 29L19 28L21 28L21 29L22 29L22 27L23 27L23 29L25 29L25 28L26 28L26 29L27 29L27 28L28 28L28 26L29 26L29 25L28 25L28 26L27 26L27 24L26 24L26 22L27 22L27 21L28 21L28 22L29 22L29 19L28 19L28 18L29 18L29 17L28 17L28 16L29 16L29 15L27 15L27 14L29 14L29 13L28 13L28 12L29 12L29 11L27 11L27 10L29 10L29 9L28 9L28 8L27 8L27 9L26 9L26 8L25 8L25 9L24 9L24 8L23 8L23 9L22 9L22 8L20 8L20 7L21 7L21 5L20 5L20 4L21 4L21 3L19 3L19 2L18 2L18 1L15 1L15 0L14 0L14 2L15 2L15 3L16 3L16 4L17 4L17 5L15 5L15 4L14 4L14 3L13 3L13 0ZM19 0L19 1L20 1L20 2L21 2L21 1L20 1L20 0ZM11 1L11 2L10 2L10 3L9 3L9 4L10 4L10 5L9 5L9 7L10 7L10 8L9 8L9 10L8 10L8 11L6 11L6 12L3 12L3 11L5 11L5 10L3 10L3 11L2 11L2 13L5 13L5 14L7 14L7 15L6 15L6 16L5 16L5 15L4 15L4 17L2 17L2 18L4 18L4 19L3 19L3 20L5 20L5 19L6 19L6 20L7 20L7 19L8 19L8 21L9 21L9 19L10 19L10 22L9 22L9 23L10 23L10 22L11 22L11 23L12 23L12 24L11 24L11 25L13 25L13 28L14 28L14 26L17 26L17 28L19 28L19 27L22 27L22 26L23 26L23 25L22 25L22 26L21 26L21 25L20 25L20 23L19 23L19 21L12 21L12 20L16 20L16 19L12 19L12 18L11 18L11 17L13 17L13 18L19 18L19 19L17 19L17 20L21 20L21 19L20 19L20 18L19 18L19 17L21 17L21 15L20 15L20 14L19 14L19 13L21 13L21 14L22 14L22 13L26 13L26 12L27 12L27 11L26 11L26 12L22 12L22 13L21 13L21 12L20 12L20 10L21 10L21 9L20 9L20 8L19 8L19 7L20 7L20 5L17 5L17 7L16 7L16 6L15 6L15 7L14 7L14 6L13 6L13 5L14 5L14 4L12 4L12 3L11 3L11 2L12 2L12 1ZM16 2L16 3L18 3L18 2ZM11 4L11 5L12 5L12 4ZM10 6L10 7L11 7L11 6ZM12 6L12 8L10 8L10 10L9 10L9 13L7 13L7 12L6 12L6 13L7 13L7 14L8 14L8 15L7 15L7 16L6 16L6 17L5 17L5 18L6 18L6 19L7 19L7 18L6 18L6 17L7 17L7 16L9 16L9 18L10 18L10 19L11 19L11 20L12 20L12 19L11 19L11 18L10 18L10 17L11 17L11 16L12 16L12 15L11 15L11 16L10 16L10 15L9 15L9 13L10 13L10 12L12 12L12 13L11 13L11 14L12 14L12 13L14 13L14 14L13 14L13 15L14 15L14 16L13 16L13 17L19 17L19 15L18 15L18 16L17 16L17 14L15 14L15 13L14 13L14 12L17 12L17 13L19 13L19 12L17 12L17 9L18 9L18 10L20 10L20 9L18 9L18 8L17 8L17 9L16 9L16 7L15 7L15 9L16 9L16 10L14 10L14 8L13 8L13 6ZM18 6L18 7L19 7L19 6ZM12 8L12 9L13 9L13 8ZM23 9L23 10L22 10L22 11L24 11L24 9ZM11 10L11 11L12 11L12 10ZM13 10L13 12L14 12L14 10ZM0 14L0 15L1 15L1 14ZM14 14L14 15L15 15L15 16L16 16L16 15L15 15L15 14ZM23 15L23 16L22 16L22 17L25 17L25 18L24 18L24 20L25 20L25 22L26 22L26 20L28 20L28 19L26 19L26 20L25 20L25 18L26 18L26 16L27 16L27 15L26 15L26 16L25 16L25 15ZM22 18L22 19L23 19L23 18ZM11 21L11 22L12 22L12 23L15 23L15 24L13 24L13 25L17 25L17 26L20 26L20 25L19 25L19 23L18 23L18 22L17 22L17 23L18 23L18 24L16 24L16 22L12 22L12 21ZM21 21L21 24L24 24L24 21ZM22 22L22 23L23 23L23 22ZM9 24L9 25L10 25L10 24ZM25 24L25 25L26 25L26 24ZM9 26L9 28L10 28L10 26ZM11 26L11 27L12 27L12 26ZM25 26L25 27L24 27L24 28L25 28L25 27L26 27L26 28L27 28L27 27L26 27L26 26ZM15 27L15 28L16 28L16 27ZM0 0L0 7L7 7L7 0ZM1 1L1 6L6 6L6 1ZM2 2L2 5L5 5L5 2ZM22 0L22 7L29 7L29 0ZM23 1L23 6L28 6L28 1ZM24 2L24 5L27 5L27 2ZM0 22L0 29L7 29L7 22ZM1 23L1 28L6 28L6 23ZM2 24L2 27L5 27L5 24Z" fill="#000000"/></g></g></svg>
