<?xml version="1.0" encoding="UTF-8"?>
<svg xmlns="http://www.w3.org/2000/svg" version="1.1" width="300" height="300" viewBox="0 0 300 300"><rect x="0" y="0" width="300" height="300" fill="#ffffff"/><g transform="scale(10.345)"><g transform="translate(0,0)"><path fill-rule="evenodd" d="M9 0L9 1L8 1L8 2L9 2L9 3L8 3L8 4L9 4L9 5L8 5L8 7L9 7L9 8L6 8L6 9L5 9L5 8L0 8L0 9L1 9L1 11L0 11L0 13L1 13L1 14L3 14L3 15L0 15L0 16L3 16L3 15L4 15L4 16L5 16L5 14L6 14L6 15L9 15L9 16L6 16L6 17L3 17L3 18L2 18L2 17L0 17L0 21L1 21L1 18L2 18L2 21L3 21L3 19L5 19L5 21L8 21L8 23L9 23L9 24L8 24L8 29L10 29L10 28L9 28L9 26L12 26L12 25L14 25L14 26L13 26L13 27L12 27L12 29L19 29L19 28L21 28L21 29L22 29L22 27L23 27L23 29L25 29L25 28L26 28L26 29L27 29L27 28L28 28L28 26L29 26L29 25L28 25L28 26L27 26L27 24L26 24L26 22L27 22L27 21L28 21L28 22L29 22L29 19L28 19L28 18L29 18L29 17L28 17L28 16L29 16L29 15L27 15L27 14L29 14L29 13L28 13L28 12L29 12L29 11L27 11L27 10L29 10L29 9L28 9L28 8L27 8L27 9L26 9L26 8L25 8L25 9L24 9L24 8L23 8L23 9L22 9L22 8L21 8L21 6L20 6L20 8L21 8L21 9L19 9L19 8L16 8L16 7L17 7L17 5L20 5L20 4L21 4L21 3L20 3L20 2L19 2L19 3L17 3L17 2L16 2L16 1L15 1L15 0L14 0L14 1L12 1L12 0L11 0L11 1L10 1L10 0ZM18 0L18 1L21 1L21 0ZM11 1L11 3L9 3L9 4L10 4L10 5L9 5L9 7L10 7L10 8L9 8L9 10L8 10L8 9L6 9L6 10L7 10L7 11L5 11L5 9L4 9L4 10L3 10L3 9L2 9L2 11L1 11L1 12L2 12L2 13L3 13L3 14L4 14L4 13L3 13L3 12L4 12L4 11L5 11L5 12L8 12L8 13L9 13L9 12L8 12L8 11L9 11L9 10L10 10L10 8L11 8L11 9L12 9L12 10L11 10L11 12L10 12L10 14L11 14L11 15L10 15L10 16L9 16L9 17L6 17L6 18L5 18L5 19L6 19L6 20L8 20L8 21L10 21L10 20L11 20L11 21L13 21L13 23L12 23L12 22L11 22L11 23L10 23L10 22L9 22L9 23L10 23L10 24L9 24L9 25L10 25L10 24L11 24L11 25L12 25L12 24L14 24L14 25L15 25L15 26L14 26L14 27L13 27L13 28L16 28L16 27L15 27L15 26L17 26L17 28L19 28L19 27L22 27L22 26L23 26L23 25L22 25L22 26L21 26L21 25L20 25L20 23L19 23L19 25L20 25L20 26L17 26L17 25L15 25L15 24L18 24L18 23L15 23L15 24L14 24L14 21L15 21L15 22L19 22L19 21L15 21L15 20L21 20L21 19L20 19L20 18L18 18L18 17L21 17L21 15L20 15L20 14L19 14L19 13L21 13L21 14L22 14L22 13L26 13L26 12L27 12L27 11L26 11L26 12L22 12L22 13L21 13L21 12L19 12L19 11L21 11L21 10L19 10L19 9L18 9L18 10L17 10L17 9L16 9L16 8L14 8L14 6L15 6L15 7L16 7L16 6L15 6L15 5L17 5L17 4L15 4L15 3L16 3L16 2L12 2L12 1ZM12 3L12 4L11 4L11 5L12 5L12 4L14 4L14 5L13 5L13 6L12 6L12 9L13 9L13 10L12 10L12 12L13 12L13 13L11 13L11 14L12 14L12 15L13 15L13 13L14 13L14 14L15 14L15 16L13 16L13 17L11 17L11 18L8 18L8 20L9 20L9 19L11 19L11 18L13 18L13 17L16 17L16 18L15 18L15 19L14 19L14 20L13 20L13 21L14 21L14 20L15 20L15 19L16 19L16 18L17 18L17 17L18 17L18 16L17 16L17 15L16 15L16 14L15 14L15 13L14 13L14 12L17 12L17 13L19 13L19 12L17 12L17 10L14 10L14 8L13 8L13 6L14 6L14 5L15 5L15 4L14 4L14 3ZM19 3L19 4L20 4L20 3ZM10 6L10 7L11 7L11 6ZM18 6L18 7L19 7L19 6ZM23 9L23 10L22 10L22 11L24 11L24 9ZM13 10L13 12L14 12L14 10ZM18 10L18 11L19 11L19 10ZM6 13L6 14L7 14L7 13ZM23 15L23 16L22 16L22 17L25 17L25 18L24 18L24 20L25 20L25 22L26 22L26 20L28 20L28 19L26 19L26 20L25 20L25 18L26 18L26 16L27 16L27 15L26 15L26 16L25 16L25 15ZM16 16L16 17L17 17L17 16ZM6 18L6 19L7 19L7 18ZM22 18L22 19L23 19L23 18ZM21 21L21 24L24 24L24 21ZM22 22L22 23L23 23L23 22ZM11 23L11 24L12 24L12 23ZM25 24L25 25L26 25L26 24ZM25 26L25 27L24 27L24 28L25 28L25 27L26 27L26 28L27 28L27 27L26 27L26 26ZM0 0L0 7L7 7L7 0ZM1 1L1 6L6 6L6 1ZM2 2L2 5L5 5L5 2ZM22 0L22 7L29 7L29 0ZM23 1L23 6L28 6L28 1ZM24 2L24 5L27 5L27 2ZM0 22L0 29L7 29L7 22ZM1 23L1 28L6 28L6 23ZM2 24L2 27L5 27L5 24Z" fill="#000000"/></g></g></svg>
