<?xml version="1.0" encoding="UTF-8"?>
<svg xmlns="http://www.w3.org/2000/svg" version="1.1" width="300" height="300" viewBox="0 0 300 300"><rect x="0" y="0" width="300" height="300" fill="#ffffff"/><g transform="scale(10.345)"><g transform="translate(0,0)"><path fill-rule="evenodd" d="M8 0L8 2L9 2L9 4L8 4L8 10L9 10L9 11L10 11L10 12L8 12L8 11L7 11L7 10L6 10L6 11L5 11L5 12L4 12L4 10L5 10L5 9L7 9L7 8L5 8L5 9L3 9L3 8L0 8L0 10L1 10L1 9L2 9L2 11L1 11L1 13L0 13L0 14L1 14L1 13L3 13L3 14L5 14L5 16L6 16L6 17L7 17L7 18L6 18L6 19L5 19L5 18L4 18L4 15L3 15L3 18L2 18L2 17L1 17L1 16L0 16L0 17L1 17L1 18L0 18L0 19L2 19L2 20L0 20L0 21L4 21L4 20L3 20L3 19L5 19L5 20L6 20L6 21L8 21L8 22L10 22L10 18L11 18L11 19L12 19L12 20L11 20L11 23L8 23L8 24L9 24L9 25L10 25L10 26L11 26L11 27L9 27L9 26L8 26L8 29L9 29L9 28L11 28L11 29L12 29L12 28L11 28L11 27L14 27L14 29L16 29L16 28L17 28L17 27L18 27L18 29L23 29L23 28L24 28L24 29L26 29L26 26L27 26L27 27L29 27L29 24L28 24L28 23L29 23L29 21L28 21L28 20L29 20L29 8L27 8L27 9L25 9L25 8L21 8L21 9L22 9L22 10L21 10L21 11L20 11L20 7L21 7L21 2L18 2L18 1L19 1L19 0L17 0L17 1L16 1L16 2L15 2L15 0L13 0L13 1L14 1L14 2L11 2L11 0ZM9 1L9 2L10 2L10 4L11 4L11 5L10 5L10 6L9 6L9 9L11 9L11 8L12 8L12 10L13 10L13 9L14 9L14 11L12 11L12 15L11 15L11 13L10 13L10 15L9 15L9 16L10 16L10 17L11 17L11 16L12 16L12 19L13 19L13 22L12 22L12 23L11 23L11 24L12 24L12 26L14 26L14 24L15 24L15 23L13 23L13 22L14 22L14 19L15 19L15 21L16 21L16 22L17 22L17 23L16 23L16 27L17 27L17 25L18 25L18 27L19 27L19 25L18 25L18 22L19 22L19 24L20 24L20 22L19 22L19 21L20 21L20 20L22 20L22 19L21 19L21 18L22 18L22 17L21 17L21 18L20 18L20 19L19 19L19 18L18 18L18 15L19 15L19 16L22 16L22 15L23 15L23 16L24 16L24 18L23 18L23 19L26 19L26 21L25 21L25 23L26 23L26 25L28 25L28 24L27 24L27 23L28 23L28 22L27 22L27 23L26 23L26 21L27 21L27 18L28 18L28 17L27 17L27 16L28 16L28 13L27 13L27 12L28 12L28 9L27 9L27 10L25 10L25 9L23 9L23 10L25 10L25 11L24 11L24 14L22 14L22 15L21 15L21 14L20 14L20 15L19 15L19 14L18 14L18 11L17 11L17 10L19 10L19 8L18 8L18 4L19 4L19 7L20 7L20 4L19 4L19 3L18 3L18 4L17 4L17 7L16 7L16 3L15 3L15 2L14 2L14 4L13 4L13 7L12 7L12 3L11 3L11 2L10 2L10 1ZM10 6L10 7L11 7L11 6ZM14 6L14 7L15 7L15 6ZM14 8L14 9L15 9L15 11L14 11L14 12L15 12L15 11L16 11L16 13L15 13L15 14L14 14L14 15L16 15L16 16L14 16L14 18L13 18L13 19L14 19L14 18L15 18L15 19L16 19L16 18L17 18L17 19L18 19L18 20L19 20L19 19L18 19L18 18L17 18L17 15L18 15L18 14L16 14L16 13L17 13L17 11L16 11L16 10L17 10L17 8ZM10 10L10 11L11 11L11 10ZM6 11L6 12L7 12L7 11ZM19 11L19 12L20 12L20 11ZM21 11L21 12L22 12L22 11ZM25 11L25 14L24 14L24 16L25 16L25 17L26 17L26 18L27 18L27 17L26 17L26 15L25 15L25 14L27 14L27 13L26 13L26 11ZM5 13L5 14L7 14L7 15L6 15L6 16L7 16L7 15L8 15L8 14L7 14L7 13ZM10 15L10 16L11 16L11 15ZM12 15L12 16L13 16L13 15ZM8 17L8 18L9 18L9 17ZM6 19L6 20L8 20L8 21L9 21L9 19ZM21 21L21 24L24 24L24 21ZM22 22L22 23L23 23L23 22ZM20 25L20 26L21 26L21 28L23 28L23 27L24 27L24 26L25 26L25 25L24 25L24 26L23 26L23 25ZM28 28L28 29L29 29L29 28ZM0 0L0 7L7 7L7 0ZM1 1L1 6L6 6L6 1ZM2 2L2 5L5 5L5 2ZM22 0L22 7L29 7L29 0ZM23 1L23 6L28 6L28 1ZM24 2L24 5L27 5L27 2ZM0 22L0 29L7 29L7 22ZM1 23L1 28L6 28L6 23ZM2 24L2 27L5 27L5 24Z" fill="#000000"/></g></g></svg>
