<?xml version="1.0" encoding="UTF-8"?>
<svg xmlns="http://www.w3.org/2000/svg" version="1.1" width="300" height="300" viewBox="0 0 300 300"><rect x="0" y="0" width="300" height="300" fill="#ffffff"/><g transform="scale(10.345)"><g transform="translate(0,0)"><path fill-rule="evenodd" d="M9 0L9 1L8 1L8 2L9 2L9 3L8 3L8 4L9 4L9 5L8 5L8 7L9 7L9 8L6 8L6 9L5 9L5 8L0 8L0 9L1 9L1 10L0 10L0 13L3 13L3 10L2 10L2 9L5 9L5 10L6 10L6 11L7 11L7 12L6 12L6 13L5 13L5 12L4 12L4 14L1 14L1 15L3 15L3 16L1 16L1 17L0 17L0 21L1 21L1 18L2 18L2 19L4 19L4 20L3 20L3 21L5 21L5 18L6 18L6 19L7 19L7 20L6 20L6 21L8 21L8 23L9 23L9 24L8 24L8 29L11 29L11 28L13 28L13 29L14 29L14 28L13 28L13 27L16 27L16 28L15 28L15 29L19 29L19 28L21 28L21 29L22 29L22 27L23 27L23 29L25 29L25 28L26 28L26 29L27 29L27 28L28 28L28 26L29 26L29 25L28 25L28 26L27 26L27 24L26 24L26 22L27 22L27 21L28 21L28 22L29 22L29 19L28 19L28 18L29 18L29 17L28 17L28 16L29 16L29 15L27 15L27 14L29 14L29 13L28 13L28 12L29 12L29 11L27 11L27 10L29 10L29 9L28 9L28 8L27 8L27 9L26 9L26 8L25 8L25 9L24 9L24 8L23 8L23 9L22 9L22 8L21 8L21 9L19 9L19 8L20 8L20 7L21 7L21 4L19 4L19 3L21 3L21 2L19 2L19 1L21 1L21 0L18 0L18 2L19 2L19 3L17 3L17 4L16 4L16 3L15 3L15 2L16 2L16 1L17 1L17 0L16 0L16 1L15 1L15 2L14 2L14 1L13 1L13 2L14 2L14 3L13 3L13 4L11 4L11 5L12 5L12 7L13 7L13 4L16 4L16 5L14 5L14 8L12 8L12 9L11 9L11 8L10 8L10 7L11 7L11 6L10 6L10 7L9 7L9 5L10 5L10 4L9 4L9 3L10 3L10 2L11 2L11 1L12 1L12 0L11 0L11 1L10 1L10 0ZM16 5L16 6L15 6L15 8L14 8L14 10L13 10L13 9L12 9L12 10L11 10L11 12L10 12L10 13L9 13L9 12L7 12L7 13L6 13L6 14L7 14L7 13L9 13L9 14L10 14L10 16L12 16L12 17L13 17L13 18L14 18L14 19L12 19L12 18L11 18L11 17L6 17L6 18L8 18L8 19L9 19L9 20L8 20L8 21L9 21L9 20L10 20L10 19L9 19L9 18L11 18L11 19L12 19L12 20L11 20L11 21L10 21L10 22L9 22L9 23L10 23L10 24L9 24L9 25L10 25L10 27L9 27L9 28L10 28L10 27L13 27L13 26L17 26L17 28L19 28L19 27L22 27L22 26L23 26L23 25L22 25L22 26L21 26L21 25L20 25L20 23L18 23L18 21L19 21L19 20L21 20L21 19L20 19L20 18L19 18L19 17L21 17L21 15L20 15L20 14L19 14L19 17L17 17L17 16L18 16L18 15L15 15L15 16L14 16L14 13L15 13L15 14L18 14L18 13L21 13L21 14L22 14L22 13L26 13L26 12L27 12L27 11L26 11L26 12L22 12L22 13L21 13L21 12L20 12L20 10L19 10L19 9L17 9L17 8L19 8L19 7L20 7L20 5ZM16 6L16 7L17 7L17 6ZM18 6L18 7L19 7L19 6ZM9 8L9 10L7 10L7 9L6 9L6 10L7 10L7 11L9 11L9 10L10 10L10 8ZM15 8L15 9L16 9L16 10L14 10L14 12L13 12L13 13L11 13L11 14L13 14L13 13L14 13L14 12L17 12L17 13L18 13L18 12L17 12L17 9L16 9L16 8ZM23 9L23 10L22 10L22 11L24 11L24 9ZM1 10L1 12L2 12L2 10ZM12 10L12 11L13 11L13 10ZM18 10L18 11L19 11L19 10ZM4 14L4 15L5 15L5 14ZM6 15L6 16L8 16L8 15ZM12 15L12 16L13 16L13 17L14 17L14 18L15 18L15 19L14 19L14 20L13 20L13 21L11 21L11 22L10 22L10 23L11 23L11 24L12 24L12 23L13 23L13 22L15 22L15 23L16 23L16 22L17 22L17 21L18 21L18 20L17 20L17 21L16 21L16 19L19 19L19 18L17 18L17 17L16 17L16 16L15 16L15 17L14 17L14 16L13 16L13 15ZM23 15L23 16L22 16L22 17L25 17L25 18L24 18L24 20L25 20L25 22L26 22L26 20L28 20L28 19L26 19L26 20L25 20L25 18L26 18L26 16L27 16L27 15L26 15L26 16L25 16L25 15ZM2 17L2 18L3 18L3 17ZM4 17L4 18L5 18L5 17ZM15 17L15 18L16 18L16 17ZM22 18L22 19L23 19L23 18ZM14 20L14 21L15 21L15 22L16 22L16 21L15 21L15 20ZM21 21L21 24L24 24L24 21ZM11 22L11 23L12 23L12 22ZM22 22L22 23L23 23L23 22ZM13 24L13 25L11 25L11 26L13 26L13 25L17 25L17 26L20 26L20 25L19 25L19 24ZM25 24L25 25L26 25L26 24ZM25 26L25 27L24 27L24 28L25 28L25 27L26 27L26 28L27 28L27 27L26 27L26 26ZM0 0L0 7L7 7L7 0ZM1 1L1 6L6 6L6 1ZM2 2L2 5L5 5L5 2ZM22 0L22 7L29 7L29 0ZM23 1L23 6L28 6L28 1ZM24 2L24 5L27 5L27 2ZM0 22L0 29L7 29L7 22ZM1 23L1 28L6 28L6 23ZM2 24L2 27L5 27L5 24Z" fill="#000000"/></g></g></svg>
