<?xml version="1.0" encoding="UTF-8"?>
<svg xmlns="http://www.w3.org/2000/svg" version="1.1" width="300" height="300" viewBox="0 0 300 300"><rect x="0" y="0" width="300" height="300" fill="#ffffff"/><g transform="scale(10.345)"><g transform="translate(0,0)"><path fill-rule="evenodd" d="M9 0L9 1L8 1L8 2L9 2L9 3L8 3L8 4L9 4L9 5L8 5L8 7L9 7L9 8L6 8L6 9L5 9L5 8L0 8L0 9L2 9L2 10L1 10L1 12L4 12L4 13L3 13L3 14L2 14L2 15L0 15L0 16L1 16L1 17L0 17L0 21L1 21L1 17L2 17L2 18L3 18L3 16L2 16L2 15L5 15L5 16L4 16L4 17L5 17L5 18L6 18L6 19L7 19L7 18L6 18L6 17L7 17L7 16L9 16L9 15L11 15L11 14L12 14L12 16L11 16L11 18L9 18L9 17L8 17L8 18L9 18L9 19L10 19L10 20L9 20L9 21L8 21L8 23L9 23L9 22L10 22L10 20L11 20L11 18L12 18L12 19L13 19L13 18L15 18L15 19L14 19L14 20L12 20L12 21L11 21L11 22L12 22L12 23L14 23L14 22L15 22L15 25L14 25L14 24L12 24L12 25L10 25L10 26L9 26L9 24L8 24L8 29L11 29L11 27L10 27L10 26L12 26L12 27L13 27L13 26L12 26L12 25L14 25L14 26L15 26L15 27L16 27L16 28L15 28L15 29L19 29L19 28L21 28L21 29L22 29L22 27L23 27L23 29L25 29L25 28L26 28L26 29L27 29L27 28L28 28L28 26L29 26L29 25L28 25L28 26L27 26L27 24L26 24L26 22L27 22L27 21L28 21L28 22L29 22L29 19L28 19L28 18L29 18L29 17L28 17L28 16L29 16L29 15L27 15L27 14L29 14L29 13L28 13L28 12L29 12L29 11L27 11L27 10L29 10L29 9L28 9L28 8L27 8L27 9L26 9L26 8L25 8L25 9L24 9L24 8L23 8L23 9L22 9L22 8L17 8L17 9L16 9L16 7L17 7L17 5L20 5L20 7L21 7L21 5L20 5L20 4L21 4L21 3L20 3L20 2L19 2L19 1L20 1L20 0L19 0L19 1L18 1L18 0L16 0L16 1L15 1L15 2L14 2L14 3L13 3L13 1L12 1L12 0L11 0L11 1L10 1L10 0ZM9 1L9 2L10 2L10 3L9 3L9 4L10 4L10 5L9 5L9 7L10 7L10 8L9 8L9 10L10 10L10 8L11 8L11 9L13 9L13 8L14 8L14 10L11 10L11 11L13 11L13 12L10 12L10 14L11 14L11 13L13 13L13 16L12 16L12 17L13 17L13 16L14 16L14 17L15 17L15 18L18 18L18 19L15 19L15 20L14 20L14 21L12 21L12 22L14 22L14 21L15 21L15 22L16 22L16 24L18 24L18 23L17 23L17 22L19 22L19 21L15 21L15 20L21 20L21 19L20 19L20 18L19 18L19 17L21 17L21 14L22 14L22 13L26 13L26 12L27 12L27 11L26 11L26 12L22 12L22 13L20 13L20 12L21 12L21 9L20 9L20 10L19 10L19 9L17 9L17 10L19 10L19 13L17 13L17 12L18 12L18 11L17 11L17 12L15 12L15 13L13 13L13 12L14 12L14 10L16 10L16 9L15 9L15 7L16 7L16 6L15 6L15 5L16 5L16 4L17 4L17 3L18 3L18 1L17 1L17 2L15 2L15 3L14 3L14 4L13 4L13 3L12 3L12 1L11 1L11 2L10 2L10 1ZM11 3L11 5L12 5L12 7L11 7L11 6L10 6L10 7L11 7L11 8L12 8L12 7L13 7L13 6L14 6L14 7L15 7L15 6L14 6L14 5L15 5L15 4L16 4L16 3L15 3L15 4L14 4L14 5L13 5L13 4L12 4L12 3ZM19 3L19 4L20 4L20 3ZM18 6L18 7L19 7L19 6ZM3 9L3 10L2 10L2 11L4 11L4 12L5 12L5 15L6 15L6 16L7 16L7 15L6 15L6 14L7 14L7 13L8 13L8 12L9 12L9 11L8 11L8 12L7 12L7 11L5 11L5 10L4 10L4 9ZM6 9L6 10L7 10L7 9ZM23 9L23 10L22 10L22 11L24 11L24 9ZM6 12L6 13L7 13L7 12ZM0 13L0 14L1 14L1 13ZM19 13L19 14L20 14L20 13ZM14 14L14 16L15 16L15 17L19 17L19 16L20 16L20 15L18 15L18 16L15 16L15 15L17 15L17 14ZM23 15L23 16L22 16L22 17L25 17L25 18L24 18L24 20L25 20L25 22L26 22L26 20L28 20L28 19L26 19L26 20L25 20L25 18L26 18L26 16L27 16L27 15L26 15L26 16L25 16L25 15ZM22 18L22 19L23 19L23 18ZM3 19L3 20L4 20L4 21L5 21L5 20L4 20L4 19ZM6 20L6 21L7 21L7 20ZM21 21L21 24L24 24L24 21ZM22 22L22 23L23 23L23 22ZM19 23L19 25L20 25L20 26L17 26L17 25L15 25L15 26L17 26L17 28L19 28L19 27L22 27L22 26L23 26L23 25L22 25L22 26L21 26L21 25L20 25L20 23ZM25 24L25 25L26 25L26 24ZM25 26L25 27L24 27L24 28L25 28L25 27L26 27L26 28L27 28L27 27L26 27L26 26ZM9 27L9 28L10 28L10 27ZM13 28L13 29L14 29L14 28ZM0 0L0 7L7 7L7 0ZM1 1L1 6L6 6L6 1ZM2 2L2 5L5 5L5 2ZM22 0L22 7L29 7L29 0ZM23 1L23 6L28 6L28 1ZM24 2L24 5L27 5L27 2ZM0 22L0 29L7 29L7 22ZM1 23L1 28L6 28L6 23ZM2 24L2 27L5 27L5 24Z" fill="#000000"/></g></g></svg>
