<?xml version="1.0" encoding="UTF-8"?>
<svg xmlns="http://www.w3.org/2000/svg" version="1.1" width="300" height="300" viewBox="0 0 300 300"><rect x="0" y="0" width="300" height="300" fill="#ffffff"/><g transform="scale(10.345)"><g transform="translate(0,0)"><path fill-rule="evenodd" d="M8 0L8 2L9 2L9 4L8 4L8 9L7 9L7 8L5 8L5 9L3 9L3 8L0 8L0 9L1 9L1 10L2 10L2 11L3 11L3 12L2 12L2 13L0 13L0 16L2 16L2 15L3 15L3 17L1 17L1 18L0 18L0 19L3 19L3 17L4 17L4 18L6 18L6 19L7 19L7 20L6 20L6 21L7 21L7 20L8 20L8 22L11 22L11 23L8 23L8 24L9 24L9 26L8 26L8 29L9 29L9 27L12 27L12 28L11 28L11 29L13 29L13 27L14 27L14 26L15 26L15 29L16 29L16 28L17 28L17 27L18 27L18 29L23 29L23 28L24 28L24 29L26 29L26 26L27 26L27 27L29 27L29 24L28 24L28 23L29 23L29 21L28 21L28 20L29 20L29 8L27 8L27 9L25 9L25 8L21 8L21 9L22 9L22 10L21 10L21 11L22 11L22 12L21 12L21 14L20 14L20 12L19 12L19 14L18 14L18 15L19 15L19 18L16 18L16 16L17 16L17 14L16 14L16 13L17 13L17 11L16 11L16 10L17 10L17 8L16 8L16 7L17 7L17 6L16 6L16 7L15 7L15 6L14 6L14 5L15 5L15 3L16 3L16 5L17 5L17 4L18 4L18 8L19 8L19 11L20 11L20 7L21 7L21 2L20 2L20 7L19 7L19 4L18 4L18 3L19 3L19 2L18 2L18 0L17 0L17 1L16 1L16 2L14 2L14 1L15 1L15 0L12 0L12 1L13 1L13 5L12 5L12 7L13 7L13 6L14 6L14 9L13 9L13 11L12 11L12 9L9 9L9 6L10 6L10 7L11 7L11 6L10 6L10 5L11 5L11 4L10 4L10 3L12 3L12 2L11 2L11 1L10 1L10 0ZM20 0L20 1L21 1L21 0ZM9 1L9 2L10 2L10 1ZM16 2L16 3L17 3L17 2ZM2 9L2 10L3 10L3 11L4 11L4 13L5 13L5 15L4 15L4 14L3 14L3 13L2 13L2 14L3 14L3 15L4 15L4 16L5 16L5 17L6 17L6 18L9 18L9 17L10 17L10 19L8 19L8 20L10 20L10 21L11 21L11 20L12 20L12 22L13 22L13 23L11 23L11 24L10 24L10 25L12 25L12 26L14 26L14 23L15 23L15 22L14 22L14 19L15 19L15 20L16 20L16 27L17 27L17 25L18 25L18 27L19 27L19 25L18 25L18 24L20 24L20 22L19 22L19 23L17 23L17 22L18 22L18 19L15 19L15 18L14 18L14 15L13 15L13 14L15 14L15 13L16 13L16 11L15 11L15 9L14 9L14 11L13 11L13 12L12 12L12 16L13 16L13 18L14 18L14 19L13 19L13 20L12 20L12 19L11 19L11 16L10 16L10 15L11 15L11 13L10 13L10 15L8 15L8 14L9 14L9 13L8 13L8 12L10 12L10 11L11 11L11 10L10 10L10 11L9 11L9 10L7 10L7 9L5 9L5 11L4 11L4 10L3 10L3 9ZM23 9L23 10L25 10L25 11L24 11L24 14L22 14L22 15L20 15L20 16L22 16L22 15L23 15L23 16L24 16L24 18L23 18L23 19L26 19L26 21L25 21L25 23L26 23L26 25L28 25L28 24L27 24L27 23L28 23L28 22L27 22L27 23L26 23L26 21L27 21L27 18L28 18L28 17L27 17L27 16L28 16L28 13L27 13L27 12L28 12L28 9L27 9L27 10L25 10L25 9ZM6 10L6 11L7 11L7 12L5 12L5 13L7 13L7 12L8 12L8 11L7 11L7 10ZM0 11L0 12L1 12L1 11ZM14 11L14 12L15 12L15 11ZM25 11L25 14L24 14L24 16L25 16L25 17L26 17L26 18L27 18L27 17L26 17L26 15L25 15L25 14L27 14L27 13L26 13L26 11ZM6 14L6 15L5 15L5 16L6 16L6 17L7 17L7 16L8 16L8 15L7 15L7 14ZM6 15L6 16L7 16L7 15ZM21 17L21 18L20 18L20 19L19 19L19 21L20 21L20 20L22 20L22 19L21 19L21 18L22 18L22 17ZM4 19L4 21L5 21L5 19ZM10 19L10 20L11 20L11 19ZM0 20L0 21L2 21L2 20ZM21 21L21 24L24 24L24 21ZM22 22L22 23L23 23L23 22ZM20 25L20 26L21 26L21 28L23 28L23 27L24 27L24 26L25 26L25 25L24 25L24 26L23 26L23 25ZM28 28L28 29L29 29L29 28ZM0 0L0 7L7 7L7 0ZM1 1L1 6L6 6L6 1ZM2 2L2 5L5 5L5 2ZM22 0L22 7L29 7L29 0ZM23 1L23 6L28 6L28 1ZM24 2L24 5L27 5L27 2ZM0 22L0 29L7 29L7 22ZM1 23L1 28L6 28L6 23ZM2 24L2 27L5 27L5 24Z" fill="#000000"/></g></g></svg>
