<?xml version="1.0" encoding="UTF-8"?>
<svg xmlns="http://www.w3.org/2000/svg" version="1.1" width="300" height="300" viewBox="0 0 300 300"><rect x="0" y="0" width="300" height="300" fill="#ffffff"/><g transform="scale(10.345)"><g transform="translate(0,0)"><path fill-rule="evenodd" d="M9 0L9 1L8 1L8 2L9 2L9 3L8 3L8 4L9 4L9 5L8 5L8 7L9 7L9 8L6 8L6 9L5 9L5 8L0 8L0 11L1 11L1 12L0 12L0 13L1 13L1 12L2 12L2 13L4 13L4 12L5 12L5 14L6 14L6 15L5 15L5 16L3 16L3 14L2 14L2 15L1 15L1 16L0 16L0 21L1 21L1 18L2 18L2 21L3 21L3 19L4 19L4 21L8 21L8 23L11 23L11 24L12 24L12 25L10 25L10 24L8 24L8 29L11 29L11 26L12 26L12 27L13 27L13 26L12 26L12 25L14 25L14 28L13 28L13 29L14 29L14 28L15 28L15 29L19 29L19 28L21 28L21 29L22 29L22 27L23 27L23 29L25 29L25 28L26 28L26 29L27 29L27 28L28 28L28 26L29 26L29 25L28 25L28 26L27 26L27 24L26 24L26 22L27 22L27 21L28 21L28 22L29 22L29 19L28 19L28 18L29 18L29 17L28 17L28 16L29 16L29 15L27 15L27 14L29 14L29 13L28 13L28 12L29 12L29 11L27 11L27 10L29 10L29 9L28 9L28 8L27 8L27 9L26 9L26 8L25 8L25 9L24 9L24 8L23 8L23 9L22 9L22 8L20 8L20 9L19 9L19 8L16 8L16 7L17 7L17 5L20 5L20 7L21 7L21 4L19 4L19 1L20 1L20 2L21 2L21 1L20 1L20 0L19 0L19 1L18 1L18 0L17 0L17 1L18 1L18 3L16 3L16 1L15 1L15 0L14 0L14 2L15 2L15 3L13 3L13 2L12 2L12 3L11 3L11 1L12 1L12 0L11 0L11 1L10 1L10 0ZM9 3L9 4L10 4L10 5L9 5L9 7L10 7L10 8L9 8L9 9L8 9L8 10L7 10L7 9L6 9L6 10L3 10L3 9L2 9L2 10L1 10L1 11L2 11L2 12L3 12L3 11L5 11L5 12L7 12L7 11L9 11L9 10L10 10L10 8L11 8L11 9L12 9L12 10L11 10L11 12L10 12L10 13L6 13L6 14L7 14L7 15L6 15L6 16L5 16L5 17L4 17L4 19L5 19L5 20L8 20L8 21L9 21L9 22L10 22L10 21L12 21L12 22L11 22L11 23L13 23L13 24L14 24L14 25L15 25L15 26L17 26L17 28L19 28L19 27L22 27L22 26L23 26L23 25L22 25L22 26L21 26L21 25L20 25L20 23L19 23L19 21L17 21L17 20L21 20L21 19L20 19L20 18L18 18L18 17L21 17L21 14L22 14L22 13L26 13L26 12L27 12L27 11L26 11L26 12L22 12L22 13L20 13L20 12L21 12L21 9L20 9L20 10L19 10L19 9L16 9L16 8L15 8L15 7L16 7L16 6L15 6L15 5L17 5L17 4L16 4L16 3L15 3L15 4L13 4L13 3L12 3L12 4L13 4L13 5L14 5L14 6L13 6L13 8L14 8L14 10L13 10L13 9L12 9L12 8L11 8L11 7L12 7L12 5L11 5L11 3ZM10 6L10 7L11 7L11 6ZM14 6L14 7L15 7L15 6ZM18 6L18 7L19 7L19 6ZM23 9L23 10L22 10L22 11L24 11L24 9ZM6 10L6 11L7 11L7 10ZM12 10L12 11L13 11L13 10ZM14 10L14 12L12 12L12 13L11 13L11 14L12 14L12 13L15 13L15 12L17 12L17 13L19 13L19 14L20 14L20 13L19 13L19 12L17 12L17 11L19 11L19 10ZM9 14L9 15L7 15L7 16L6 16L6 17L5 17L5 18L6 18L6 19L7 19L7 18L6 18L6 17L10 17L10 16L13 16L13 17L11 17L11 18L13 18L13 17L14 17L14 19L16 19L16 18L17 18L17 17L18 17L18 16L20 16L20 15L18 15L18 14L13 14L13 15L10 15L10 14ZM9 15L9 16L10 16L10 15ZM13 15L13 16L14 16L14 17L15 17L15 18L16 18L16 17L17 17L17 16L18 16L18 15L16 15L16 17L15 17L15 15ZM23 15L23 16L22 16L22 17L25 17L25 18L24 18L24 20L25 20L25 22L26 22L26 20L28 20L28 19L26 19L26 20L25 20L25 18L26 18L26 16L27 16L27 15L26 15L26 16L25 16L25 15ZM2 17L2 18L3 18L3 17ZM8 18L8 19L9 19L9 21L10 21L10 20L11 20L11 19L9 19L9 18ZM22 18L22 19L23 19L23 18ZM12 20L12 21L16 21L16 22L13 22L13 23L15 23L15 25L17 25L17 26L20 26L20 25L19 25L19 23L18 23L18 24L16 24L16 22L17 22L17 21L16 21L16 20ZM21 21L21 24L24 24L24 21ZM22 22L22 23L23 23L23 22ZM25 24L25 25L26 25L26 24ZM25 26L25 27L24 27L24 28L25 28L25 27L26 27L26 28L27 28L27 27L26 27L26 26ZM15 27L15 28L16 28L16 27ZM0 0L0 7L7 7L7 0ZM1 1L1 6L6 6L6 1ZM2 2L2 5L5 5L5 2ZM22 0L22 7L29 7L29 0ZM23 1L23 6L28 6L28 1ZM24 2L24 5L27 5L27 2ZM0 22L0 29L7 29L7 22ZM1 23L1 28L6 28L6 23ZM2 24L2 27L5 27L5 24Z" fill="#000000"/></g></g></svg>
