<?xml version="1.0" encoding="UTF-8"?>
<svg xmlns="http://www.w3.org/2000/svg" version="1.1" width="300" height="300" viewBox="0 0 300 300"><rect x="0" y="0" width="300" height="300" fill="#ffffff"/><g transform="scale(10.345)"><g transform="translate(0,0)"><path fill-rule="evenodd" d="M9 0L9 1L8 1L8 2L9 2L9 3L8 3L8 4L9 4L9 5L8 5L8 7L9 7L9 8L6 8L6 9L5 9L5 8L0 8L0 11L1 11L1 10L3 10L3 9L5 9L5 10L4 10L4 11L3 11L3 14L4 14L4 13L5 13L5 14L6 14L6 15L5 15L5 16L4 16L4 18L2 18L2 17L3 17L3 15L2 15L2 13L0 13L0 14L1 14L1 15L0 15L0 16L2 16L2 17L0 17L0 21L1 21L1 18L2 18L2 20L3 20L3 21L8 21L8 23L9 23L9 24L8 24L8 29L9 29L9 28L10 28L10 29L11 29L11 28L10 28L10 27L11 27L11 26L12 26L12 27L13 27L13 25L14 25L14 26L15 26L15 27L14 27L14 28L12 28L12 29L19 29L19 28L21 28L21 29L22 29L22 27L23 27L23 29L25 29L25 28L26 28L26 29L27 29L27 28L28 28L28 26L29 26L29 25L28 25L28 26L27 26L27 24L26 24L26 22L27 22L27 21L28 21L28 22L29 22L29 19L28 19L28 18L29 18L29 17L28 17L28 16L29 16L29 15L27 15L27 14L29 14L29 13L28 13L28 12L29 12L29 11L27 11L27 10L29 10L29 9L28 9L28 8L27 8L27 9L26 9L26 8L25 8L25 9L24 9L24 8L23 8L23 9L22 9L22 8L20 8L20 7L21 7L21 6L20 6L20 7L19 7L19 6L18 6L18 7L19 7L19 8L20 8L20 9L18 9L18 8L16 8L16 7L17 7L17 5L21 5L21 4L19 4L19 2L18 2L18 1L17 1L17 0L16 0L16 1L15 1L15 2L14 2L14 1L12 1L12 0L11 0L11 1L10 1L10 0ZM19 0L19 1L20 1L20 0ZM11 1L11 2L12 2L12 1ZM16 1L16 2L15 2L15 3L14 3L14 2L13 2L13 3L9 3L9 4L10 4L10 5L9 5L9 7L10 7L10 8L9 8L9 10L8 10L8 12L7 12L7 11L6 11L6 12L5 12L5 13L6 13L6 14L8 14L8 15L10 15L10 14L11 14L11 16L9 16L9 17L8 17L8 16L7 16L7 15L6 15L6 16L5 16L5 18L4 18L4 20L7 20L7 19L5 19L5 18L7 18L7 17L8 17L8 18L9 18L9 19L8 19L8 21L9 21L9 22L11 22L11 24L10 24L10 26L9 26L9 27L10 27L10 26L11 26L11 25L13 25L13 24L14 24L14 25L15 25L15 26L17 26L17 28L19 28L19 27L22 27L22 26L23 26L23 25L22 25L22 26L21 26L21 25L20 25L20 23L18 23L18 22L19 22L19 21L17 21L17 20L18 20L18 18L19 18L19 20L21 20L21 19L20 19L20 18L19 18L19 17L21 17L21 14L22 14L22 13L26 13L26 12L27 12L27 11L26 11L26 12L22 12L22 13L20 13L20 12L21 12L21 11L20 11L20 10L21 10L21 9L20 9L20 10L18 10L18 9L16 9L16 8L15 8L15 7L16 7L16 6L15 6L15 5L17 5L17 4L15 4L15 3L18 3L18 2L17 2L17 1ZM20 2L20 3L21 3L21 2ZM13 3L13 4L11 4L11 5L13 5L13 4L14 4L14 5L15 5L15 4L14 4L14 3ZM10 6L10 7L11 7L11 8L10 8L10 10L9 10L9 12L8 12L8 14L10 14L10 12L11 12L11 14L12 14L12 15L14 15L14 16L13 16L13 17L10 17L10 18L12 18L12 19L9 19L9 20L12 20L12 21L11 21L11 22L12 22L12 21L16 21L16 22L15 22L15 23L14 23L14 24L15 24L15 25L17 25L17 26L20 26L20 25L19 25L19 24L15 24L15 23L16 23L16 22L17 22L17 21L16 21L16 20L17 20L17 19L16 19L16 18L15 18L15 17L17 17L17 18L18 18L18 17L19 17L19 16L20 16L20 15L19 15L19 14L20 14L20 13L19 13L19 11L18 11L18 10L14 10L14 8L13 8L13 6L12 6L12 7L11 7L11 6ZM14 6L14 7L15 7L15 6ZM11 8L11 9L12 9L12 10L11 10L11 12L12 12L12 13L13 13L13 14L14 14L14 13L15 13L15 14L16 14L16 15L15 15L15 16L14 16L14 17L13 17L13 18L14 18L14 19L13 19L13 20L16 20L16 19L15 19L15 18L14 18L14 17L15 17L15 16L18 16L18 14L19 14L19 13L18 13L18 14L17 14L17 12L18 12L18 11L17 11L17 12L14 12L14 10L13 10L13 9L12 9L12 8ZM6 9L6 10L7 10L7 9ZM23 9L23 10L22 10L22 11L24 11L24 9ZM12 10L12 12L13 12L13 13L14 13L14 12L13 12L13 10ZM6 12L6 13L7 13L7 12ZM23 15L23 16L22 16L22 17L25 17L25 18L24 18L24 20L25 20L25 22L26 22L26 20L28 20L28 19L26 19L26 20L25 20L25 18L26 18L26 16L27 16L27 15L26 15L26 16L25 16L25 15ZM6 16L6 17L7 17L7 16ZM22 18L22 19L23 19L23 18ZM21 21L21 24L24 24L24 21ZM22 22L22 23L23 23L23 22ZM12 23L12 24L13 24L13 23ZM25 24L25 25L26 25L26 24ZM25 26L25 27L24 27L24 28L25 28L25 27L26 27L26 28L27 28L27 27L26 27L26 26ZM15 27L15 28L16 28L16 27ZM0 0L0 7L7 7L7 0ZM1 1L1 6L6 6L6 1ZM2 2L2 5L5 5L5 2ZM22 0L22 7L29 7L29 0ZM23 1L23 6L28 6L28 1ZM24 2L24 5L27 5L27 2ZM0 22L0 29L7 29L7 22ZM1 23L1 28L6 28L6 23ZM2 24L2 27L5 27L5 24Z" fill="#000000"/></g></g></svg>
