<?xml version="1.0" encoding="UTF-8"?>
<svg xmlns="http://www.w3.org/2000/svg" version="1.1" width="300" height="300" viewBox="0 0 300 300"><rect x="0" y="0" width="300" height="300" fill="#ffffff"/><g transform="scale(10.345)"><g transform="translate(0,0)"><path fill-rule="evenodd" d="M9 0L9 1L8 1L8 2L9 2L9 3L8 3L8 4L9 4L9 5L8 5L8 7L9 7L9 8L6 8L6 9L5 9L5 8L0 8L0 11L2 11L2 13L0 13L0 15L1 15L1 16L2 16L2 15L1 15L1 14L2 14L2 13L3 13L3 12L4 12L4 16L3 16L3 17L4 17L4 16L6 16L6 17L8 17L8 18L6 18L6 19L4 19L4 20L2 20L2 21L5 21L5 20L6 20L6 21L7 21L7 20L6 20L6 19L8 19L8 20L9 20L9 21L8 21L8 23L9 23L9 24L8 24L8 29L11 29L11 28L12 28L12 27L13 27L13 25L17 25L17 26L14 26L14 28L13 28L13 29L14 29L14 28L15 28L15 29L19 29L19 28L21 28L21 29L22 29L22 27L23 27L23 29L25 29L25 28L26 28L26 29L27 29L27 28L28 28L28 26L29 26L29 25L28 25L28 26L27 26L27 24L26 24L26 22L27 22L27 21L28 21L28 22L29 22L29 19L28 19L28 18L29 18L29 17L28 17L28 16L29 16L29 15L27 15L27 14L29 14L29 13L28 13L28 12L29 12L29 11L27 11L27 10L29 10L29 9L28 9L28 8L27 8L27 9L26 9L26 8L25 8L25 9L24 9L24 8L23 8L23 9L22 9L22 8L20 8L20 9L18 9L18 8L17 8L17 9L16 9L16 7L17 7L17 5L21 5L21 4L19 4L19 3L17 3L17 4L16 4L16 3L15 3L15 2L17 2L17 1L15 1L15 0ZM19 0L19 1L18 1L18 2L19 2L19 1L20 1L20 2L21 2L21 1L20 1L20 0ZM11 1L11 2L10 2L10 3L9 3L9 4L10 4L10 5L9 5L9 7L10 7L10 8L9 8L9 10L8 10L8 9L6 9L6 10L5 10L5 9L4 9L4 11L6 11L6 12L5 12L5 13L6 13L6 14L7 14L7 15L6 15L6 16L8 16L8 17L9 17L9 16L10 16L10 15L13 15L13 16L14 16L14 17L15 17L15 18L13 18L13 17L12 17L12 16L11 16L11 17L12 17L12 18L8 18L8 19L9 19L9 20L11 20L11 21L12 21L12 22L9 22L9 23L13 23L13 24L9 24L9 25L10 25L10 26L11 26L11 27L12 27L12 26L11 26L11 25L13 25L13 24L15 24L15 22L16 22L16 24L18 24L18 23L19 23L19 25L20 25L20 26L17 26L17 28L19 28L19 27L22 27L22 26L23 26L23 25L22 25L22 26L21 26L21 25L20 25L20 23L19 23L19 21L15 21L15 20L14 20L14 19L15 19L15 18L16 18L16 20L21 20L21 19L20 19L20 18L19 18L19 17L21 17L21 14L22 14L22 13L26 13L26 12L27 12L27 11L26 11L26 12L22 12L22 13L20 13L20 12L21 12L21 11L20 11L20 10L21 10L21 9L20 9L20 10L18 10L18 9L17 9L17 10L18 10L18 11L17 11L17 12L15 12L15 13L13 13L13 12L14 12L14 10L16 10L16 9L15 9L15 7L16 7L16 6L15 6L15 5L16 5L16 4L15 4L15 3L14 3L14 2L15 2L15 1L13 1L13 3L14 3L14 4L15 4L15 5L13 5L13 4L12 4L12 3L11 3L11 2L12 2L12 1ZM11 4L11 5L12 5L12 4ZM10 6L10 7L11 7L11 6ZM12 6L12 7L13 7L13 6ZM14 6L14 7L15 7L15 6ZM18 6L18 7L19 7L19 6ZM20 6L20 7L21 7L21 6ZM10 8L10 10L9 10L9 11L8 11L8 10L6 10L6 11L8 11L8 12L9 12L9 14L8 14L8 13L7 13L7 12L6 12L6 13L7 13L7 14L8 14L8 16L9 16L9 14L10 14L10 12L11 12L11 10L12 10L12 12L13 12L13 10L14 10L14 8L13 8L13 9L11 9L11 8ZM1 9L1 10L2 10L2 9ZM23 9L23 10L22 10L22 11L24 11L24 9ZM18 11L18 12L17 12L17 13L19 13L19 14L20 14L20 13L19 13L19 11ZM11 13L11 14L13 14L13 13ZM14 14L14 15L16 15L16 16L15 16L15 17L16 17L16 18L17 18L17 17L19 17L19 16L20 16L20 15L18 15L18 16L17 16L17 15L16 15L16 14ZM23 15L23 16L22 16L22 17L25 17L25 18L24 18L24 20L25 20L25 22L26 22L26 20L28 20L28 19L26 19L26 20L25 20L25 18L26 18L26 16L27 16L27 15L26 15L26 16L25 16L25 15ZM16 16L16 17L17 17L17 16ZM0 17L0 21L1 21L1 17ZM22 18L22 19L23 19L23 18ZM11 19L11 20L12 20L12 21L14 21L14 22L15 22L15 21L14 21L14 20L13 20L13 19ZM21 21L21 24L24 24L24 21ZM22 22L22 23L23 23L23 22ZM25 24L25 25L26 25L26 24ZM25 26L25 27L24 27L24 28L25 28L25 27L26 27L26 28L27 28L27 27L26 27L26 26ZM15 27L15 28L16 28L16 27ZM0 0L0 7L7 7L7 0ZM1 1L1 6L6 6L6 1ZM2 2L2 5L5 5L5 2ZM22 0L22 7L29 7L29 0ZM23 1L23 6L28 6L28 1ZM24 2L24 5L27 5L27 2ZM0 22L0 29L7 29L7 22ZM1 23L1 28L6 28L6 23ZM2 24L2 27L5 27L5 24Z" fill="#000000"/></g></g></svg>
