<?xml version="1.0" encoding="UTF-8"?>
<svg xmlns="http://www.w3.org/2000/svg" version="1.1" width="300" height="300" viewBox="0 0 300 300"><rect x="0" y="0" width="300" height="300" fill="#ffffff"/><g transform="scale(10.345)"><g transform="translate(0,0)"><path fill-rule="evenodd" d="M9 0L9 1L8 1L8 2L9 2L9 3L8 3L8 4L9 4L9 5L8 5L8 7L9 7L9 8L6 8L6 9L5 9L5 8L0 8L0 11L1 11L1 12L0 12L0 14L1 14L1 13L2 13L2 15L3 15L3 16L2 16L2 17L0 17L0 21L1 21L1 18L2 18L2 20L3 20L3 18L4 18L4 19L8 19L8 20L10 20L10 21L11 21L11 22L12 22L12 21L19 21L19 23L20 23L20 25L19 25L19 24L15 24L15 25L14 25L14 24L13 24L13 23L12 23L12 24L13 24L13 25L11 25L11 26L13 26L13 27L14 27L14 28L13 28L13 29L14 29L14 28L15 28L15 29L19 29L19 28L21 28L21 29L22 29L22 27L23 27L23 29L25 29L25 28L26 28L26 29L27 29L27 28L28 28L28 26L29 26L29 25L28 25L28 26L27 26L27 24L26 24L26 22L27 22L27 21L28 21L28 22L29 22L29 19L28 19L28 18L29 18L29 17L28 17L28 16L29 16L29 15L27 15L27 14L29 14L29 13L28 13L28 12L29 12L29 11L27 11L27 10L29 10L29 9L28 9L28 8L27 8L27 9L26 9L26 8L25 8L25 9L24 9L24 8L23 8L23 9L22 9L22 8L21 8L21 9L19 9L19 8L20 8L20 7L21 7L21 6L20 6L20 7L19 7L19 6L18 6L18 7L19 7L19 8L17 8L17 9L16 9L16 7L17 7L17 5L21 5L21 4L19 4L19 3L20 3L20 2L19 2L19 1L20 1L20 0L19 0L19 1L15 1L15 0L14 0L14 1L13 1L13 0ZM10 1L10 2L12 2L12 1ZM14 1L14 2L13 2L13 3L9 3L9 4L10 4L10 5L9 5L9 7L10 7L10 8L9 8L9 10L7 10L7 9L6 9L6 10L5 10L5 9L3 9L3 10L2 10L2 11L3 11L3 12L2 12L2 13L3 13L3 15L4 15L4 17L5 17L5 18L7 18L7 17L10 17L10 18L11 18L11 21L12 21L12 19L13 19L13 20L16 20L16 19L13 19L13 18L17 18L17 20L21 20L21 19L20 19L20 18L19 18L19 17L21 17L21 14L22 14L22 13L26 13L26 12L27 12L27 11L26 11L26 12L22 12L22 13L20 13L20 12L21 12L21 10L19 10L19 9L17 9L17 12L15 12L15 13L12 13L12 12L10 12L10 14L11 14L11 16L10 16L10 15L9 15L9 16L8 16L8 14L9 14L9 12L8 12L8 14L7 14L7 13L3 13L3 12L4 12L4 11L5 11L5 12L7 12L7 11L9 11L9 10L10 10L10 8L11 8L11 9L12 9L12 10L11 10L11 11L13 11L13 12L14 12L14 10L16 10L16 9L15 9L15 7L16 7L16 6L15 6L15 7L14 7L14 5L16 5L16 4L17 4L17 3L19 3L19 2L16 2L16 4L13 4L13 3L14 3L14 2L15 2L15 1ZM11 4L11 5L12 5L12 7L11 7L11 6L10 6L10 7L11 7L11 8L12 8L12 9L13 9L13 10L14 10L14 8L13 8L13 4ZM23 9L23 10L22 10L22 11L24 11L24 9ZM6 10L6 11L7 11L7 10ZM18 10L18 12L17 12L17 13L19 13L19 14L17 14L17 15L19 15L19 16L16 16L16 14L15 14L15 15L14 15L14 16L13 16L13 15L12 15L12 17L11 17L11 18L12 18L12 17L17 17L17 18L18 18L18 19L19 19L19 18L18 18L18 17L19 17L19 16L20 16L20 15L19 15L19 14L20 14L20 13L19 13L19 10ZM11 13L11 14L12 14L12 13ZM6 14L6 15L5 15L5 16L6 16L6 17L7 17L7 16L6 16L6 15L7 15L7 14ZM23 15L23 16L22 16L22 17L25 17L25 18L24 18L24 20L25 20L25 22L26 22L26 20L28 20L28 19L26 19L26 20L25 20L25 18L26 18L26 16L27 16L27 15L26 15L26 16L25 16L25 15ZM22 18L22 19L23 19L23 18ZM4 20L4 21L5 21L5 20ZM6 20L6 21L7 21L7 20ZM8 21L8 23L9 23L9 21ZM21 21L21 24L24 24L24 21ZM14 22L14 23L16 23L16 22ZM17 22L17 23L18 23L18 22ZM22 22L22 23L23 23L23 22ZM10 23L10 24L11 24L11 23ZM8 24L8 29L9 29L9 28L12 28L12 27L9 27L9 26L10 26L10 25L9 25L9 24ZM25 24L25 25L26 25L26 24ZM13 25L13 26L14 26L14 25ZM15 25L15 26L17 26L17 28L19 28L19 27L22 27L22 26L23 26L23 25L22 25L22 26L21 26L21 25L20 25L20 26L17 26L17 25ZM25 26L25 27L24 27L24 28L25 28L25 27L26 27L26 28L27 28L27 27L26 27L26 26ZM15 27L15 28L16 28L16 27ZM0 0L0 7L7 7L7 0ZM1 1L1 6L6 6L6 1ZM2 2L2 5L5 5L5 2ZM22 0L22 7L29 7L29 0ZM23 1L23 6L28 6L28 1ZM24 2L24 5L27 5L27 2ZM0 22L0 29L7 29L7 22ZM1 23L1 28L6 28L6 23ZM2 24L2 27L5 27L5 24Z" fill="#000000"/></g></g></svg>
