<?xml version="1.0" encoding="UTF-8"?>
<svg xmlns="http://www.w3.org/2000/svg" version="1.1" width="300" height="300" viewBox="0 0 300 300"><rect x="0" y="0" width="300" height="300" fill="#ffffff"/><g transform="scale(10.345)"><g transform="translate(0,0)"><path fill-rule="evenodd" d="M9 0L9 1L8 1L8 2L9 2L9 3L8 3L8 4L9 4L9 5L8 5L8 7L9 7L9 8L6 8L6 9L5 9L5 8L0 8L0 10L2 10L2 13L3 13L3 14L1 14L1 13L0 13L0 14L1 14L1 15L2 15L2 16L0 16L0 21L1 21L1 18L2 18L2 19L3 19L3 20L5 20L5 19L7 19L7 18L9 18L9 19L8 19L8 20L6 20L6 21L8 21L8 23L11 23L11 22L12 22L12 24L13 24L13 25L11 25L11 24L10 24L10 26L12 26L12 27L9 27L9 24L8 24L8 29L10 29L10 28L13 28L13 29L14 29L14 28L15 28L15 29L19 29L19 28L21 28L21 29L22 29L22 27L23 27L23 29L25 29L25 28L26 28L26 29L27 29L27 28L28 28L28 26L29 26L29 25L28 25L28 26L27 26L27 24L26 24L26 22L27 22L27 21L28 21L28 22L29 22L29 19L28 19L28 18L29 18L29 17L28 17L28 16L29 16L29 15L27 15L27 14L29 14L29 13L28 13L28 12L29 12L29 11L27 11L27 10L29 10L29 9L28 9L28 8L27 8L27 9L26 9L26 8L25 8L25 9L24 9L24 8L23 8L23 9L22 9L22 8L21 8L21 4L19 4L19 3L20 3L20 2L21 2L21 1L20 1L20 0L19 0L19 1L20 1L20 2L19 2L19 3L17 3L17 4L16 4L16 3L15 3L15 2L18 2L18 1L17 1L17 0L16 0L16 1L14 1L14 3L12 3L12 4L11 4L11 5L12 5L12 4L14 4L14 5L13 5L13 6L12 6L12 7L11 7L11 6L10 6L10 7L9 7L9 5L10 5L10 4L9 4L9 3L11 3L11 2L10 2L10 1L12 1L12 2L13 2L13 0ZM14 3L14 4L15 4L15 5L16 5L16 4L15 4L15 3ZM17 5L17 7L16 7L16 6L15 6L15 7L16 7L16 8L14 8L14 6L13 6L13 8L14 8L14 10L13 10L13 9L12 9L12 8L11 8L11 7L10 7L10 8L9 8L9 9L6 9L6 10L8 10L8 13L5 13L5 12L7 12L7 11L5 11L5 9L4 9L4 11L3 11L3 13L4 13L4 16L3 16L3 17L5 17L5 18L7 18L7 17L10 17L10 19L9 19L9 20L8 20L8 21L9 21L9 22L10 22L10 21L11 21L11 20L12 20L12 21L13 21L13 24L18 24L18 23L19 23L19 25L20 25L20 26L17 26L17 25L13 25L13 26L14 26L14 27L13 27L13 28L14 28L14 27L15 27L15 28L16 28L16 27L15 27L15 26L17 26L17 28L19 28L19 27L22 27L22 26L23 26L23 25L22 25L22 26L21 26L21 25L20 25L20 23L19 23L19 21L13 21L13 20L14 20L14 19L15 19L15 18L16 18L16 17L17 17L17 20L21 20L21 19L20 19L20 18L19 18L19 17L21 17L21 14L22 14L22 13L26 13L26 12L27 12L27 11L26 11L26 12L22 12L22 13L20 13L20 12L21 12L21 9L20 9L20 8L19 8L19 7L20 7L20 5ZM18 6L18 7L19 7L19 6ZM10 8L10 10L9 10L9 15L8 15L8 14L6 14L6 15L5 15L5 17L7 17L7 16L6 16L6 15L8 15L8 16L9 16L9 15L10 15L10 16L11 16L11 15L10 15L10 12L11 12L11 10L12 10L12 9L11 9L11 8ZM16 8L16 9L19 9L19 10L20 10L20 9L19 9L19 8ZM2 9L2 10L3 10L3 9ZM23 9L23 10L22 10L22 11L24 11L24 9ZM14 10L14 12L13 12L13 11L12 11L12 12L13 12L13 13L11 13L11 14L12 14L12 16L13 16L13 17L11 17L11 18L13 18L13 17L16 17L16 16L13 16L13 13L15 13L15 12L17 12L17 13L19 13L19 14L20 14L20 13L19 13L19 12L17 12L17 10ZM4 11L4 12L5 12L5 11ZM14 14L14 15L18 15L18 16L17 16L17 17L19 17L19 16L20 16L20 15L18 15L18 14ZM23 15L23 16L22 16L22 17L25 17L25 18L24 18L24 20L25 20L25 22L26 22L26 20L28 20L28 19L26 19L26 20L25 20L25 18L26 18L26 16L27 16L27 15L26 15L26 16L25 16L25 15ZM18 18L18 19L19 19L19 18ZM22 18L22 19L23 19L23 18ZM12 19L12 20L13 20L13 19ZM9 20L9 21L10 21L10 20ZM21 21L21 24L24 24L24 21ZM14 22L14 23L18 23L18 22ZM22 22L22 23L23 23L23 22ZM25 24L25 25L26 25L26 24ZM25 26L25 27L24 27L24 28L25 28L25 27L26 27L26 28L27 28L27 27L26 27L26 26ZM0 0L0 7L7 7L7 0ZM1 1L1 6L6 6L6 1ZM2 2L2 5L5 5L5 2ZM22 0L22 7L29 7L29 0ZM23 1L23 6L28 6L28 1ZM24 2L24 5L27 5L27 2ZM0 22L0 29L7 29L7 22ZM1 23L1 28L6 28L6 23ZM2 24L2 27L5 27L5 24Z" fill="#000000"/></g></g></svg>
